<?xml version="1.0" encoding="UTF-8" standalone="no"?>
<svg
   id="logo-87"
   width="201.55701"
   height="39.999996"
   viewBox="0 0 201.55701 39.999996"
   fill="none"
   version="1.1"
   sodipodi:docname="logo.svg"
   xmlns:inkscape="http://www.inkscape.org/namespaces/inkscape"
   xmlns:sodipodi="http://sodipodi.sourceforge.net/DTD/sodipodi-0.dtd"
   xmlns="http://www.w3.org/2000/svg"
   xmlns:svg="http://www.w3.org/2000/svg">
  <defs
     id="defs1452" />
  <sodipodi:namedview
     id="namedview1450"
     pagecolor="#ffffff"
     bordercolor="#000000"
     borderopacity="0.25"
     inkscape:showpageshadow="2"
     inkscape:pageopacity="0.0"
     inkscape:pagecheckerboard="0"
     inkscape:deskcolor="#d1d1d1"
     showgrid="false" />
  <path
     class="ccustom"
     fill-rule="evenodd"
     clip-rule="evenodd"
     d="m 25.5557,11.685304 c -1.6445,-1.0988 -3.5779,-1.6853 -5.5557,-1.6853 V 3.8147e-6 c 3.9556,0 7.8224,1.1729799853 11.1114,3.3706099853 3.289,2.19762 5.8524,5.3212 7.3662,8.9756902 1.5137,3.6545 1.9098,7.6759 1.1381,11.5555 -0.7717,3.8796 -2.6765,7.4433 -5.4736,10.2403 -2.797,2.7971 -6.3607,4.7019 -10.2403,5.4736 -3.8796,0.7717 -7.901,0.3756 -11.5555,-1.1381 -3.6545,-1.5138 -6.77807,-4.0772 -8.97569,-7.3662 C 1.17298,27.822404 0,23.955604 0,20.000004 h 10 c 0,1.9778 0.5865,3.9112 1.6853,5.5557 1.0988,1.6445 2.6606,2.9262 4.4879,3.6831 1.8272,0.7569 3.8379,0.9549 5.7777,0.569 1.9398,-0.3858 3.7216,-1.3382 5.1202,-2.7367 1.3985,-1.3986 2.3509,-3.1804 2.7367,-5.1202 0.3859,-1.9398 0.1879,-3.9505 -0.569,-5.7777 -0.7569,-1.8273 -2.0386,-3.3891 -3.6831,-4.4879 z"
     fill="#007DFC"
     id="path1425"
     style="fill:#ffffff;fill-opacity:1" />
  <path
     class="ccustom"
     fill-rule="evenodd"
     clip-rule="evenodd"
     d="M 10,5.28493e-6 C 10,1.3132238 9.74135,2.6135838 9.2388,3.8268438 c -0.50255,1.21325 -1.23914,2.31564 -2.16773,3.24423 -0.92858,0.92859 -2.03097,1.66518 -3.24423,2.16773 C 2.61358,9.7413438 1.31322,10.000004 6.15916e-6,10.000004 l -4.3711e-7,10 C 2.62644,20.000004 5.22716,19.482704 7.65368,18.477604 c 2.42652,-1.0051 4.63132,-2.4783 6.48842,-4.3355 1.8572,-1.8571 3.3304,-4.0619 4.3355,-6.4884302 C 19.4827,5.2271538 20,2.6264338 20,0 Z"
     fill="#007DFC"
     id="path1427"
     style="fill:#ffffff;fill-opacity:1" />
  <path
     class="ccustom"
     d="m 125.619,14.452504 h -4.852 v 15.4123 h 4.852 z"
     fill="#007DFC"
     id="path1429"
     style="fill:#ffffff;fill-opacity:1" />
  <path
     class="ccustom"
     d="m 121.307,11.566604 c 0.507,0.5074 1.141,0.7611 1.902,0.7611 0.761,0 1.385,-0.2537 1.871,-0.7611 0.487,-0.5285 0.73,-1.1628 0.73,-1.9027502 0,-0.76108 -0.243,-1.39536 -0.73,-1.90274 -0.486,-0.50742 -1.11,-0.76111 -1.871,-0.76111 -0.761,0 -1.395,0.25369 -1.902,0.76111 -0.487,0.50738 -0.73,1.14166 -0.73,1.90274 0,0.7399502 0.243,1.3742502 0.73,1.9027502 z"
     fill="#007DFC"
     id="path1431"
     style="fill:#ffffff;fill-opacity:1" />
  <path
     class="ccustom"
     d="M 51.1562,29.864804 V 7.4756838 h 4.9789 V 25.488504 h 9.9261 v 4.3763 z"
     fill="#007DFC"
     id="path1433"
     style="fill:#ffffff;fill-opacity:1" />
  <path
     class="ccustom"
     fill-rule="evenodd"
     clip-rule="evenodd"
     d="m 75.0274,30.213604 c -1.5856,0 -3.0232,-0.3488 -4.3129,-1.0465 -1.2685,-0.7188 -2.2727,-1.6913 -3.0127,-2.9176 -0.7399,-1.2262 -1.1099,-2.6004 -1.1099,-4.1226 0,-1.5222 0.37,-2.8858 1.1099,-4.0909 0.74,-1.2051 1.7442,-2.1565 3.0127,-2.8541 1.2685,-0.7189 2.7062,-1.0783 4.3129,-1.0783 1.6068,0 3.0444,0.3489 4.3129,1.0465 1.2685,0.6977 2.2728,1.6597 3.0127,2.8859 0.74,1.2051 1.11,2.5687 1.11,4.0909 0,1.5222 -0.37,2.8964 -1.11,4.1226 -0.7399,1.2263 -1.7442,2.1988 -3.0127,2.9176 -1.2685,0.6977 -2.7061,1.0465 -4.3129,1.0465 z m 0,-4.408 c 0.6977,0 1.3108,-0.148 1.8394,-0.444 0.5285,-0.3171 0.9302,-0.7505 1.205,-1.3002 0.296,-0.5708 0.444,-1.2157 0.444,-1.9345 0,-0.7188 -0.148,-1.3425 -0.444,-1.871 -0.296,-0.5497 -0.7082,-0.9725 -1.2368,-1.2685 -0.5074,-0.3172 -1.1099,-0.4757 -1.8076,-0.4757 -0.6765,0 -1.279,0.1585 -1.8076,0.4757 -0.5285,0.296 -0.9408,0.7188 -1.2368,1.2685 -0.296,0.5497 -0.4439,1.1839 -0.4439,1.9027 0,0.6977 0.1479,1.332 0.4439,1.9028 0.296,0.5497 0.7083,0.9831 1.2368,1.3002 0.5286,0.296 1.1311,0.444 1.8076,0.444 z"
     fill="#007DFC"
     id="path1435"
     style="fill:#ffffff;fill-opacity:1" />
  <path
     class="ccustom"
     fill-rule="evenodd"
     clip-rule="evenodd"
     d="m 87.3057,35.890204 c 1.2896,0.5919 2.7801,0.8879 4.4715,0.8879 1.649,0 3.1184,-0.3277 4.408,-0.9831 1.2897,-0.6554 2.3044,-1.5644 3.0444,-2.7272 0.7399,-1.1628 1.1104,-2.537 1.1104,-4.1227 v -14.4926 h -4.7574 v 1.0355 c -0.3538,-0.2978 -0.7556,-0.5478 -1.205,-0.7501 -0.8246,-0.4017 -1.7654,-0.6026 -2.8224,-0.6026 -1.4165,0 -2.6745,0.3383 -3.7738,1.0148 -1.0995,0.6554 -1.9662,1.5645 -2.6005,2.7273 -0.6343,1.1417 -0.9513,2.4313 -0.9513,3.869 0,1.4165 0.317,2.7061 0.9513,3.8689 0.6343,1.1628 1.501,2.0825 2.6005,2.759 1.0993,0.6765 2.3573,1.0148 3.7738,1.0148 1.0359,0 1.9767,-0.2008 2.8224,-0.6025 0.4096,-0.1946 0.7796,-0.4239 1.1099,-0.688 v 0.9734 c 0,1.0782 -0.3488,1.9133 -1.0465,2.5053 -0.6765,0.592 -1.6173,0.8879 -2.8224,0.8879 -0.9725,0 -1.8076,-0.1691 -2.5053,-0.5074 -0.6765,-0.3382 -1.2897,-0.8351 -1.8394,-1.4905 l -2.9809,2.981 c 0.7399,1.0571 1.7442,1.8711 3.0127,2.4419 z m 6.9133,-11.258 c -0.4863,0.296 -1.0676,0.444 -1.7442,0.444 -0.6765,0 -1.2685,-0.148 -1.7759,-0.444 -0.4863,-0.296 -0.8668,-0.6977 -1.1416,-1.2051 -0.2749,-0.5285 -0.4123,-1.0888 -0.4123,-1.6807 0,-0.6343 0.1374,-1.2051 0.4123,-1.7125 0.2748,-0.5074 0.6659,-0.9091 1.1733,-1.2051 0.5074,-0.296 1.0888,-0.444 1.7442,-0.444 0.6766,0 1.2579,0.148 1.7442,0.444 0.5074,0.296 0.8879,0.6977 1.1417,1.2051 0.2748,0.5074 0.4122,1.0782 0.4122,1.7125 0,0.6342 -0.1374,1.205 -0.4122,1.7124 -0.2538,0.4863 -0.6343,0.8774 -1.1417,1.1734 z"
     fill="#007DFC"
     id="path1437"
     style="fill:#ffffff;fill-opacity:1" />
  <path
     class="ccustom"
     fill-rule="evenodd"
     clip-rule="evenodd"
     d="m 110.551,30.213604 c -1.586,0 -3.024,-0.3488 -4.313,-1.0465 -1.269,-0.7188 -2.273,-1.6913 -3.013,-2.9176 -0.74,-1.2262 -1.11,-2.6004 -1.11,-4.1226 0,-1.5222 0.37,-2.8858 1.11,-4.0909 0.74,-1.2051 1.744,-2.1565 3.013,-2.8541 1.268,-0.7189 2.706,-1.0783 4.313,-1.0783 1.606,0 3.044,0.3489 4.312,1.0465 1.269,0.6977 2.273,1.6597 3.013,2.8859 0.74,1.2051 1.11,2.5687 1.11,4.0909 0,1.5222 -0.37,2.8964 -1.11,4.1226 -0.74,1.2263 -1.744,2.1988 -3.013,2.9176 -1.268,0.6977 -2.706,1.0465 -4.312,1.0465 z m 0,-4.408 c 0.697,0 1.31,-0.148 1.839,-0.444 0.528,-0.3171 0.93,-0.7505 1.205,-1.3002 0.296,-0.5708 0.444,-1.2157 0.444,-1.9345 0,-0.7188 -0.148,-1.3425 -0.444,-1.871 -0.296,-0.5497 -0.708,-0.9725 -1.237,-1.2685 -0.507,-0.3172 -1.11,-0.4757 -1.807,-0.4757 -0.677,0 -1.28,0.1585 -1.808,0.4757 -0.529,0.296 -0.941,0.7188 -1.237,1.2685 -0.296,0.5497 -0.444,1.1839 -0.444,1.9027 0,0.6977 0.148,1.332 0.444,1.9028 0.296,0.5497 0.708,0.9831 1.237,1.3002 0.528,0.296 1.131,0.444 1.808,0.444 z"
     fill="#007DFC"
     id="path1439"
     style="fill:#ffffff;fill-opacity:1" />
  <path
     class="ccustom"
     fill-rule="evenodd"
     clip-rule="evenodd"
     d="m 137.281,30.181904 c -1.035,0 -1.987,-0.2008 -2.854,-0.6025 -0.456,-0.2114 -0.868,-0.4638 -1.236,-0.7572 v 7.5437 h -4.789 v -21.9134 h 4.852 v 1.0637 c 0.352,-0.2879 0.743,-0.5368 1.173,-0.7466 0.867,-0.4229 1.819,-0.6343 2.854,-0.6343 1.459,0 2.749,0.3489 3.869,1.0466 1.142,0.6976 2.03,1.649 2.664,2.8541 0.656,1.2051 0.983,2.5793 0.983,4.1226 0,1.5434 -0.327,2.9176 -0.983,4.1227 -0.634,1.2051 -1.522,2.1564 -2.664,2.8541 -1.12,0.6977 -2.41,1.0465 -3.869,1.0465 z m -0.887,-4.3763 c 0.697,0 1.3,-0.1586 1.807,-0.4757 0.529,-0.3171 0.941,-0.7506 1.237,-1.3002 0.296,-0.5497 0.444,-1.1734 0.444,-1.8711 0,-0.7188 -0.148,-1.353 -0.444,-1.9027 -0.296,-0.5497 -0.708,-0.9725 -1.237,-1.2685 -0.507,-0.3172 -1.099,-0.4757 -1.776,-0.4757 -0.676,0 -1.279,0.1585 -1.807,0.4757 -0.508,0.296 -0.909,0.7188 -1.205,1.2685 -0.296,0.5497 -0.444,1.1839 -0.444,1.9027 0,0.6977 0.137,1.3214 0.412,1.8711 0.296,0.5496 0.708,0.9831 1.237,1.3002 0.528,0.3171 1.12,0.4757 1.776,0.4757 z"
     fill="#007DFC"
     id="path1441"
     style="fill:#ffffff;fill-opacity:1" />
  <path
     class="ccustom"
     d="m 149.546,29.896504 c 0.888,0.2326 1.786,0.3488 2.695,0.3488 1.924,0 3.446,-0.4439 4.567,-1.3319 1.141,-0.8879 1.712,-2.0824 1.712,-3.5835 0,-0.9725 -0.179,-1.7548 -0.539,-2.3467 -0.359,-0.6131 -0.824,-1.0994 -1.395,-1.4588 -0.571,-0.3594 -1.174,-0.6449 -1.808,-0.8563 -0.634,-0.2114 -1.237,-0.3911 -1.807,-0.5391 -0.571,-0.148 -1.036,-0.3171 -1.396,-0.5074 -0.359,-0.1903 -0.539,-0.444 -0.539,-0.7611 0,-0.296 0.138,-0.518 0.412,-0.666 0.275,-0.1691 0.687,-0.2536 1.237,-0.2536 0.571,0 1.152,0.1162 1.744,0.3488 0.613,0.2325 1.163,0.6343 1.649,1.2051 l 2.759,-2.7907 c -0.697,-0.888 -1.606,-1.554 -2.727,-1.9979 -1.099,-0.4651 -2.304,-0.6977 -3.615,-0.6977 -1.247,0 -2.336,0.2114 -3.266,0.6342 -0.931,0.4229 -1.65,1.0043 -2.157,1.7442 -0.507,0.7188 -0.761,1.5751 -0.761,2.5688 0,0.9302 0.18,1.7019 0.539,2.315 0.359,0.5919 0.825,1.0571 1.395,1.3953 0.571,0.3383 1.174,0.6026 1.808,0.7928 0.634,0.1903 1.237,0.37 1.808,0.5392 0.57,0.148 1.036,0.3277 1.395,0.5391 0.381,0.1903 0.571,0.4757 0.571,0.8562 0,0.296 -0.159,0.5285 -0.476,0.6977 -0.296,0.1691 -0.729,0.2537 -1.3,0.2537 -0.825,0 -1.586,-0.148 -2.283,-0.444 -0.698,-0.3171 -1.301,-0.7505 -1.808,-1.3002 l -2.759,2.7907 c 0.529,0.5708 1.163,1.0783 1.903,1.5222 0.761,0.4228 1.575,0.7505 2.442,0.9831 z"
     fill="#007DFC"
     id="path1443"
     style="fill:#ffffff;fill-opacity:1" />
  <path
     class="ccustom"
     d="m 167.368,30.213604 c -1.416,0 -2.674,-0.2854 -3.773,-0.8562 -1.079,-0.592 -1.924,-1.3954 -2.537,-2.4102 -0.614,-1.0359 -0.92,-2.2198 -0.92,-3.5518 v -8.9429 h 4.852 v 8.8795 c 0,0.5285 0.084,0.9831 0.254,1.3636 0.19,0.3806 0.465,0.6766 0.824,0.888 0.36,0.2114 0.793,0.3171 1.3,0.3171 0.719,0 1.29,-0.222 1.713,-0.666 0.423,-0.4651 0.634,-1.0993 0.634,-1.9027 v -8.8795 h 4.852 v 8.9112 c 0,1.3531 -0.306,2.5476 -0.92,3.5835 -0.613,1.0148 -1.458,1.8182 -2.537,2.4102 -1.078,0.5708 -2.325,0.8562 -3.742,0.8562 z"
     fill="#007DFC"
     id="path1445"
     style="fill:#ffffff;fill-opacity:1" />
  <path
     class="ccustom"
     d="m 181.831,14.452504 h -4.852 v 15.4123 h 4.852 v -9.0064 c 0,-0.5285 0.106,-0.9725 0.317,-1.3319 0.233,-0.3594 0.54,-0.6343 0.92,-0.8245 0.381,-0.2115 0.814,-0.3172 1.3,-0.3172 0.698,0 1.279,0.222 1.744,0.666 0.487,0.4228 0.73,1.0254 0.73,1.8076 v 9.0064 h 4.852 v -9.0064 c 0,-0.5285 0.106,-0.9725 0.317,-1.3319 0.233,-0.3594 0.539,-0.6343 0.92,-0.8245 0.38,-0.2115 0.814,-0.3172 1.3,-0.3172 0.698,0 1.279,0.222 1.744,0.666 0.486,0.4228 0.729,1.0254 0.729,1.8076 v 9.0064 h 4.853 v -9.5455 c 0,-1.2896 -0.275,-2.389 -0.825,-3.2981 -0.529,-0.9303 -1.258,-1.6385 -2.188,-2.1247 -0.909,-0.5075 -1.956,-0.7612 -3.14,-0.7612 -1.205,0 -2.294,0.2643 -3.266,0.7929 -0.632,0.3367 -1.184,0.7713 -1.657,1.3037 -0.441,-0.5569 -0.977,-1.0126 -1.61,-1.3672 -0.845,-0.4862 -1.807,-0.7294 -2.885,-0.7294 -1.142,0 -2.167,0.2432 -3.076,0.7294 -0.396,0.2023 -0.755,0.4446 -1.079,0.7269 z"
     fill="#007DFC"
     id="path1447"
     inkscape:label="path1447"
     style="fill:#ffffff;fill-opacity:1" />
</svg>
